solid radiator_4
   facet normal -8.881784e-17 1.000000e+00 1.387779e-16
      outer loop
         vertex 4.994900e+00 3.100000e+00 9.999999e-02
         vertex 4.994900e+00 3.100000e+00 7.000000e-01
         vertex 4.995000e+00 3.100000e+00 9.999999e-02
      endloop
   endfacet
   facet normal -8.881784e-17 1.000000e+00 1.387779e-16
      outer loop
         vertex 4.995000e+00 3.100000e+00 9.999999e-02
         vertex 4.994900e+00 3.100000e+00 7.000000e-01
         vertex 4.995000e+00 3.100000e+00 7.000000e-01
      endloop
   endfacet
   facet normal -7.888609e-33 1.387779e-16 -1.000000e+00
      outer loop
         vertex 4.994900e+00 1.900000e+00 9.999999e-02
         vertex 4.994900e+00 3.100000e+00 9.999999e-02
         vertex 4.995000e+00 1.900000e+00 9.999999e-02
      endloop
   endfacet
   facet normal -7.888609e-33 1.387779e-16 -1.000000e+00
      outer loop
         vertex 4.995000e+00 1.900000e+00 9.999999e-02
         vertex 4.994900e+00 3.100000e+00 9.999999e-02
         vertex 4.995000e+00 3.100000e+00 9.999999e-02
      endloop
   endfacet
   facet normal 8.881784e-17 -1.000000e+00 -1.387779e-16
      outer loop
         vertex 4.994900e+00 1.900000e+00 7.000000e-01
         vertex 4.994900e+00 1.900000e+00 9.999999e-02
         vertex 4.995000e+00 1.900000e+00 7.000000e-01
      endloop
   endfacet
   facet normal 8.881784e-17 -1.000000e+00 -1.387779e-16
      outer loop
         vertex 4.995000e+00 1.900000e+00 7.000000e-01
         vertex 4.994900e+00 1.900000e+00 9.999999e-02
         vertex 4.995000e+00 1.900000e+00 9.999999e-02
      endloop
   endfacet
   facet normal 7.888609e-33 -1.387779e-16 1.000000e+00
      outer loop
         vertex 4.994900e+00 3.100000e+00 7.000000e-01
         vertex 4.994900e+00 1.900000e+00 7.000000e-01
         vertex 4.995000e+00 3.100000e+00 7.000000e-01
      endloop
   endfacet
   facet normal 7.888609e-33 -1.387779e-16 1.000000e+00
      outer loop
         vertex 4.995000e+00 3.100000e+00 7.000000e-01
         vertex 4.994900e+00 1.900000e+00 7.000000e-01
         vertex 4.995000e+00 1.900000e+00 7.000000e-01
      endloop
   endfacet
   facet normal -1.000000e+00 -8.881784e-17 0.000000e+00
      outer loop
         vertex 4.994900e+00 1.900000e+00 9.999999e-02
         vertex 4.994900e+00 1.900000e+00 7.000000e-01
         vertex 4.994900e+00 3.100000e+00 9.999999e-02
      endloop
   endfacet
   facet normal -1.000000e+00 -8.881784e-17 0.000000e+00
      outer loop
         vertex 4.994900e+00 3.100000e+00 9.999999e-02
         vertex 4.994900e+00 1.900000e+00 7.000000e-01
         vertex 4.994900e+00 3.100000e+00 7.000000e-01
      endloop
   endfacet
   facet normal 1.000000e+00 8.881784e-17 0.000000e+00
      outer loop
         vertex 4.995000e+00 1.900000e+00 7.000000e-01
         vertex 4.995000e+00 1.900000e+00 9.999999e-02
         vertex 4.995000e+00 3.100000e+00 7.000000e-01
      endloop
   endfacet
   facet normal 1.000000e+00 8.881784e-17 0.000000e+00
      outer loop
         vertex 4.995000e+00 3.100000e+00 7.000000e-01
         vertex 4.995000e+00 1.900000e+00 9.999999e-02
         vertex 4.995000e+00 3.100000e+00 9.999999e-02
      endloop
   endfacet
endsolid