solid radiator_1
   facet normal -1.000000e+00 -2.664535e-16 -2.664535e-16
      outer loop
         vertex 8.999861e-01 5.100000e-03 6.998749e-01
         vertex 8.999861e-01 5.100000e-03 9.987491e-02
         vertex 8.999861e-01 5.000000e-03 6.998749e-01
      endloop
   endfacet
   facet normal -1.000000e+00 -2.664535e-16 -2.664535e-16
      outer loop
         vertex 8.999861e-01 5.000000e-03 6.998749e-01
         vertex 8.999861e-01 5.100000e-03 9.987491e-02
         vertex 8.999861e-01 5.000000e-03 9.987491e-02
      endloop
   endfacet
   facet normal -2.664535e-16 -7.099748e-32 1.000000e+00
      outer loop
         vertex 2.099986e+00 5.100000e-03 6.998749e-01
         vertex 8.999861e-01 5.100000e-03 6.998749e-01
         vertex 2.099986e+00 5.000000e-03 6.998749e-01
      endloop
   endfacet
   facet normal -2.664535e-16 -7.099748e-32 1.000000e+00
      outer loop
         vertex 2.099986e+00 5.000000e-03 6.998749e-01
         vertex 8.999861e-01 5.100000e-03 6.998749e-01
         vertex 8.999861e-01 5.000000e-03 6.998749e-01
      endloop
   endfacet
   facet normal 1.000000e+00 2.664535e-16 2.664535e-16
      outer loop
         vertex 2.099986e+00 5.100000e-03 9.987491e-02
         vertex 2.099986e+00 5.100000e-03 6.998749e-01
         vertex 2.099986e+00 5.000000e-03 9.987491e-02
      endloop
   endfacet
   facet normal 1.000000e+00 2.664535e-16 2.664535e-16
      outer loop
         vertex 2.099986e+00 5.000000e-03 9.987491e-02
         vertex 2.099986e+00 5.100000e-03 6.998749e-01
         vertex 2.099986e+00 5.000000e-03 6.998749e-01
      endloop
   endfacet
   facet normal 2.664535e-16 7.099748e-32 -1.000000e+00
      outer loop
         vertex 8.999861e-01 5.100000e-03 9.987491e-02
         vertex 2.099986e+00 5.100000e-03 9.987491e-02
         vertex 8.999861e-01 5.000000e-03 9.987491e-02
      endloop
   endfacet
   facet normal 2.664535e-16 7.099748e-32 -1.000000e+00
      outer loop
         vertex 8.999861e-01 5.000000e-03 9.987491e-02
         vertex 2.099986e+00 5.100000e-03 9.987491e-02
         vertex 2.099986e+00 5.000000e-03 9.987491e-02
      endloop
   endfacet
   facet normal -2.664535e-16 1.000000e+00 0.000000e+00
      outer loop
         vertex 2.099986e+00 5.100000e-03 6.998749e-01
         vertex 2.099986e+00 5.100000e-03 9.987491e-02
         vertex 8.999861e-01 5.100000e-03 6.998749e-01
      endloop
   endfacet
   facet normal -2.664535e-16 1.000000e+00 0.000000e+00
      outer loop
         vertex 8.999861e-01 5.100000e-03 6.998749e-01
         vertex 2.099986e+00 5.100000e-03 9.987491e-02
         vertex 8.999861e-01 5.100000e-03 9.987491e-02
      endloop
   endfacet
   facet normal 2.664535e-16 -1.000000e+00 0.000000e+00
      outer loop
         vertex 2.099986e+00 5.000000e-03 9.987491e-02
         vertex 2.099986e+00 5.000000e-03 6.998749e-01
         vertex 8.999861e-01 5.000000e-03 9.987491e-02
      endloop
   endfacet
   facet normal 2.664535e-16 -1.000000e+00 0.000000e+00
      outer loop
         vertex 8.999861e-01 5.000000e-03 9.987491e-02
         vertex 2.099986e+00 5.000000e-03 6.998749e-01
         vertex 8.999861e-01 5.000000e-03 6.998749e-01
      endloop
   endfacet
endsolid