solid radiator_3
   facet normal -1.000000e+00 -1.776357e-16 1.776357e-16
      outer loop
         vertex 4.000000e-01 4.994900e+00 9.999999e-02
         vertex 4.000000e-01 4.994900e+00 7.000000e-01
         vertex 4.000000e-01 4.995000e+00 9.999999e-02
      endloop
   endfacet
   facet normal -1.000000e+00 -1.776357e-16 1.776357e-16
      outer loop
         vertex 4.000000e-01 4.995000e+00 9.999999e-02
         vertex 4.000000e-01 4.994900e+00 7.000000e-01
         vertex 4.000000e-01 4.995000e+00 7.000000e-01
      endloop
   endfacet
   facet normal -1.776357e-16 -5.361789e-33 -1.000000e+00
      outer loop
         vertex 1.600000e+00 4.994900e+00 9.999999e-02
         vertex 4.000000e-01 4.994900e+00 9.999999e-02
         vertex 1.600000e+00 4.995000e+00 9.999999e-02
      endloop
   endfacet
   facet normal -1.776357e-16 -5.361789e-33 -1.000000e+00
      outer loop
         vertex 1.600000e+00 4.995000e+00 9.999999e-02
         vertex 4.000000e-01 4.994900e+00 9.999999e-02
         vertex 4.000000e-01 4.995000e+00 9.999999e-02
      endloop
   endfacet
   facet normal 1.000000e+00 1.776357e-16 -1.776357e-16
      outer loop
         vertex 1.600000e+00 4.994900e+00 7.000000e-01
         vertex 1.600000e+00 4.994900e+00 9.999999e-02
         vertex 1.600000e+00 4.995000e+00 7.000000e-01
      endloop
   endfacet
   facet normal 1.000000e+00 1.776357e-16 -1.776357e-16
      outer loop
         vertex 1.600000e+00 4.995000e+00 7.000000e-01
         vertex 1.600000e+00 4.994900e+00 9.999999e-02
         vertex 1.600000e+00 4.995000e+00 9.999999e-02
      endloop
   endfacet
   facet normal 1.776357e-16 5.361789e-33 1.000000e+00
      outer loop
         vertex 4.000000e-01 4.994900e+00 7.000000e-01
         vertex 1.600000e+00 4.994900e+00 7.000000e-01
         vertex 4.000000e-01 4.995000e+00 7.000000e-01
      endloop
   endfacet
   facet normal 1.776357e-16 5.361789e-33 1.000000e+00
      outer loop
         vertex 4.000000e-01 4.995000e+00 7.000000e-01
         vertex 1.600000e+00 4.994900e+00 7.000000e-01
         vertex 1.600000e+00 4.995000e+00 7.000000e-01
      endloop
   endfacet
   facet normal 1.776357e-16 -1.000000e+00 -2.619265e-32
      outer loop
         vertex 1.600000e+00 4.994900e+00 9.999999e-02
         vertex 1.600000e+00 4.994900e+00 7.000000e-01
         vertex 4.000000e-01 4.994900e+00 9.999999e-02
      endloop
   endfacet
   facet normal 1.776357e-16 -1.000000e+00 -2.619265e-32
      outer loop
         vertex 4.000000e-01 4.994900e+00 9.999999e-02
         vertex 1.600000e+00 4.994900e+00 7.000000e-01
         vertex 4.000000e-01 4.994900e+00 7.000000e-01
      endloop
   endfacet
   facet normal -1.776357e-16 1.000000e+00 2.619265e-32
      outer loop
         vertex 1.600000e+00 4.995000e+00 7.000000e-01
         vertex 1.600000e+00 4.995000e+00 9.999999e-02
         vertex 4.000000e-01 4.995000e+00 7.000000e-01
      endloop
   endfacet
   facet normal -1.776357e-16 1.000000e+00 2.619265e-32
      outer loop
         vertex 4.000000e-01 4.995000e+00 7.000000e-01
         vertex 1.600000e+00 4.995000e+00 9.999999e-02
         vertex 4.000000e-01 4.995000e+00 9.999999e-02
      endloop
   endfacet
endsolid