solid radiator_2
   facet normal -1.776357e-16 1.000000e+00 -1.387779e-16
      outer loop
         vertex 5.100000e-03 4.600000e+00 7.000000e-01
         vertex 5.100000e-03 4.600000e+00 9.999999e-02
         vertex 5.000000e-03 4.600000e+00 7.000000e-01
      endloop
   endfacet
   facet normal -1.776357e-16 1.000000e+00 -1.387779e-16
      outer loop
         vertex 5.000000e-03 4.600000e+00 7.000000e-01
         vertex 5.100000e-03 4.600000e+00 9.999999e-02
         vertex 5.000000e-03 4.600000e+00 9.999999e-02
      endloop
   endfacet
   facet normal -3.155444e-32 1.387779e-16 1.000000e+00
      outer loop
         vertex 5.100000e-03 3.400000e+00 7.000000e-01
         vertex 5.100000e-03 4.600000e+00 7.000000e-01
         vertex 5.000000e-03 3.400000e+00 7.000000e-01
      endloop
   endfacet
   facet normal -3.155444e-32 1.387779e-16 1.000000e+00
      outer loop
         vertex 5.000000e-03 3.400000e+00 7.000000e-01
         vertex 5.100000e-03 4.600000e+00 7.000000e-01
         vertex 5.000000e-03 4.600000e+00 7.000000e-01
      endloop
   endfacet
   facet normal 1.776357e-16 -1.000000e+00 1.387779e-16
      outer loop
         vertex 5.100000e-03 3.400000e+00 9.999999e-02
         vertex 5.100000e-03 3.400000e+00 7.000000e-01
         vertex 5.000000e-03 3.400000e+00 9.999999e-02
      endloop
   endfacet
   facet normal 1.776357e-16 -1.000000e+00 1.387779e-16
      outer loop
         vertex 5.000000e-03 3.400000e+00 9.999999e-02
         vertex 5.100000e-03 3.400000e+00 7.000000e-01
         vertex 5.000000e-03 3.400000e+00 7.000000e-01
      endloop
   endfacet
   facet normal 3.155444e-32 -1.387779e-16 -1.000000e+00
      outer loop
         vertex 5.100000e-03 4.600000e+00 9.999999e-02
         vertex 5.100000e-03 3.400000e+00 9.999999e-02
         vertex 5.000000e-03 4.600000e+00 9.999999e-02
      endloop
   endfacet
   facet normal 3.155444e-32 -1.387779e-16 -1.000000e+00
      outer loop
         vertex 5.000000e-03 4.600000e+00 9.999999e-02
         vertex 5.100000e-03 3.400000e+00 9.999999e-02
         vertex 5.000000e-03 3.400000e+00 9.999999e-02
      endloop
   endfacet
   facet normal 1.000000e+00 1.776357e-16 0.000000e+00
      outer loop
         vertex 5.100000e-03 3.400000e+00 7.000000e-01
         vertex 5.100000e-03 3.400000e+00 9.999999e-02
         vertex 5.100000e-03 4.600000e+00 7.000000e-01
      endloop
   endfacet
   facet normal 1.000000e+00 1.776357e-16 0.000000e+00
      outer loop
         vertex 5.100000e-03 4.600000e+00 7.000000e-01
         vertex 5.100000e-03 3.400000e+00 9.999999e-02
         vertex 5.100000e-03 4.600000e+00 9.999999e-02
      endloop
   endfacet
   facet normal -1.000000e+00 -1.776357e-16 0.000000e+00
      outer loop
         vertex 5.000000e-03 3.400000e+00 9.999999e-02
         vertex 5.000000e-03 3.400000e+00 7.000000e-01
         vertex 5.000000e-03 4.600000e+00 9.999999e-02
      endloop
   endfacet
   facet normal -1.000000e+00 -1.776357e-16 0.000000e+00
      outer loop
         vertex 5.000000e-03 4.600000e+00 9.999999e-02
         vertex 5.000000e-03 3.400000e+00 7.000000e-01
         vertex 5.000000e-03 4.600000e+00 7.000000e-01
      endloop
   endfacet
endsolid