solid window_2
   facet normal 1.776357e-16 -1.000000e+00 0.000000e+00
      outer loop
         vertex 2.000013e+00 4.995000e+00 1.749983e+00
         vertex 2.000013e+00 4.995000e+00 7.499833e-01
         vertex 4.000013e+00 4.995000e+00 1.749983e+00
      endloop
   endfacet
   facet normal 1.776357e-16 -1.000000e+00 0.000000e+00
      outer loop
         vertex 4.000013e+00 4.995000e+00 1.749983e+00
         vertex 2.000013e+00 4.995000e+00 7.499833e-01
         vertex 4.000013e+00 4.995000e+00 7.499833e-01
      endloop
   endfacet
endsolid