solid window_1
   facet normal 1.000000e+00 1.776357e-16 4.930381e-32
      outer loop
         vertex 5.000000e-03 2.999987e+00 7.499833e-01
         vertex 5.000000e-03 2.999987e+00 1.749983e+00
         vertex 5.000000e-03 9.999875e-01 7.499833e-01
      endloop
   endfacet
   facet normal 1.000000e+00 1.776357e-16 4.930381e-32
      outer loop
         vertex 5.000000e-03 9.999875e-01 7.499833e-01
         vertex 5.000000e-03 2.999987e+00 1.749983e+00
         vertex 5.000000e-03 9.999875e-01 1.749983e+00
      endloop
   endfacet
endsolid